<?xml version="1.0" standalone="no"?>
<!DOCTYPE svg PUBLIC "-//W3C//DTD SVG 20010904//EN"
 "http://www.w3.org/TR/2001/REC-SVG-20010904/DTD/svg10.dtd">
<svg version="1.0" xmlns="http://www.w3.org/2000/svg"
 width="400.000000pt" height="400.000000pt" viewBox="0 0 400.000000 400.000000"
 preserveAspectRatio="xMidYMid meet">
<metadata>
Created by potrace 1.14, written by Peter Selinger 2001-2017
</metadata>
<g transform="translate(0.000000,400.000000) scale(0.100000,-0.100000)"
fill="#000000" stroke="none">
<path d="M400 2000 l0 -1600 570 0 570 0 0 100 0 100 -470 0 -470 0 0 1400 0
1400 470 0 470 0 0 100 0 100 -570 0 -570 0 0 -1600z"/>
<path d="M2460 3500 l0 -100 470 0 470 0 0 -1400 0 -1400 -470 0 -470 0 0
-100 0 -100 570 0 570 0 0 1600 0 1600 -570 0 -570 0 0 -100z"/>
<path d="M1610 3511 c0 -47 4 -81 10 -81 6 0 10 31 10 74 0 41 -4 78 -10 81
-6 4 -10 -23 -10 -74z"/>
<path d="M1661 3546 l-24 -42 24 -37 c13 -20 27 -37 32 -37 13 0 7 14 -17 45
-23 29 -23 31 -7 55 29 41 32 48 23 54 -4 2 -19 -14 -31 -38z"/>
<path d="M1719 3588 c-1 -2 -2 -29 -3 -62 -2 -43 2 -64 15 -80 9 -11 20 -18
24 -14 4 4 1 14 -7 22 -10 9 -14 33 -13 71 1 31 -2 58 -7 61 -4 3 -8 4 -9 2z"/>
<path d="M1799 3575 c-1 -11 -1 -39 0 -62 0 -26 -5 -48 -15 -58 -9 -9 -13 -19
-10 -22 17 -17 40 29 41 81 2 52 -13 107 -16 61z"/>
<path d="M1837 3583 c-10 -18 -8 -153 2 -153 7 0 11 31 11 80 0 75 -3 91 -13
73z"/>
<path d="M1865 3580 c-4 -6 0 -10 8 -10 21 0 38 -25 31 -44 -3 -9 -9 -14 -13
-12 -4 3 -13 1 -20 -3 -9 -6 -5 -10 13 -15 21 -5 26 -12 26 -36 0 -17 5 -30
11 -30 10 0 7 49 -5 69 -4 5 -2 12 3 15 16 10 -4 59 -27 67 -12 5 -24 4 -27
-1z"/>
<path d="M1961 3571 c-35 -35 -21 -141 20 -141 15 0 10 17 -6 24 -22 8 -20 95
2 112 10 7 15 15 11 19 -3 4 -16 -3 -27 -14z"/>
<path d="M2114 3578 c-5 -8 9 -11 39 -9 22 3 22 0 -10 -62 -38 -73 -37 -77 8
-77 21 0 39 5 39 10 0 6 -11 10 -25 10 -32 0 -31 3 5 73 16 31 26 58 22 58
-26 5 -75 3 -78 -3z"/>
<path d="M2251 3580 c-1 -20 52 -150 61 -150 11 0 39 72 35 90 -2 8 -9 -1 -17
-23 l-14 -37 -32 67 c-18 38 -33 61 -33 53z"/>
<path d="M2012 3563 c19 -22 17 -101 -2 -113 -8 -5 -11 -12 -7 -16 17 -18 40
26 40 75 -1 56 -7 71 -30 71 -14 0 -15 -2 -1 -17z"/>
<path d="M2210 3505 c0 -43 4 -75 10 -75 6 0 10 32 10 75 0 43 -4 75 -10 75
-6 0 -10 -32 -10 -75z"/>
<path d="M2362 3505 c0 -41 5 -75 10 -75 4 0 8 34 8 75 0 43 -4 75 -10 75 -6
0 -9 -31 -8 -75z"/>
<path d="M2244 3485 c0 -30 4 -55 8 -55 10 0 10 81 0 98 -5 7 -8 -11 -8 -43z"/>
<path d="M905 3114 c-15 -11 -17 -51 -17 -403 0 -287 -3 -391 -12 -391 -7 0
-7 -3 1 -8 9 -5 13 -33 12 -83 -1 -140 1 -166 14 -168 6 -1 80 -3 163 -5 115
-2 156 0 170 11 16 12 18 29 18 168 -1 85 1 155 3 155 9 0 53 -50 53 -60 0 -5
5 -10 10 -10 6 0 10 -6 10 -13 0 -7 9 -19 20 -27 11 -8 20 -19 20 -25 0 -5 14
-25 31 -42 16 -18 28 -33 25 -33 -4 0 2 -8 12 -18 29 -32 52 -62 46 -62 -3 0
1 -7 10 -15 8 -8 19 -15 25 -15 6 0 11 -3 11 -8 0 -4 89 -7 198 -7 221 0 234
3 212 55 -7 17 -16 30 -21 30 -5 0 -9 4 -9 10 0 9 -19 35 -47 65 -7 8 -13 16
-13 20 0 7 -19 30 -42 53 -10 9 -18 22 -18 29 0 7 -4 13 -8 13 -4 0 -15 12
-24 28 -16 27 -31 46 -75 102 -13 15 -23 32 -23 38 0 5 -7 12 -15 16 -8 3 -15
13 -15 21 0 9 -4 13 -10 10 -5 -3 -10 -1 -10 5 0 6 -11 26 -24 43 l-25 32 42
55 c22 30 45 57 49 58 4 2 8 10 8 18 0 8 5 14 10 14 6 0 13 7 16 15 4 8 19 29
35 46 16 17 27 35 24 39 -3 4 2 10 10 14 8 3 15 13 15 22 0 10 3 14 7 11 3 -4
18 10 32 31 13 20 30 42 35 49 31 35 36 43 29 43 -4 0 0 6 9 13 26 21 31 48 8
54 -11 3 -20 9 -20 14 0 8 -33 5 -49 -6 -5 -3 -12 -1 -16 5 -3 5 -11 10 -16
10 -6 0 -7 -5 -3 -11 4 -8 1 -8 -13 -1 -11 6 -25 7 -33 2 -8 -5 -19 -6 -25 -2
-16 11 -55 9 -55 -3 0 -5 -4 -4 -9 4 -8 12 -12 12 -24 2 -11 -8 -17 -9 -22 -1
-5 8 -10 8 -20 0 -10 -8 -15 -8 -20 0 -4 6 -12 7 -18 2 -7 -4 -22 -7 -34 -6
-13 0 -23 -4 -23 -10 0 -6 -14 -24 -30 -40 -17 -16 -30 -36 -30 -43 0 -8 -4
-11 -10 -8 -5 3 -10 0 -10 -7 0 -7 -14 -29 -30 -48 -16 -19 -35 -41 -40 -47
-6 -7 -8 -13 -4 -13 4 0 -3 -9 -16 -20 -13 -11 -20 -20 -16 -20 4 0 -2 -10
-14 -22 -11 -12 -20 -26 -20 -32 0 -5 -3 -6 -7 -2 -5 4 -8 73 -9 152 0 79 -3
147 -6 150 -3 3 -17 6 -30 8 -13 1 -29 6 -36 10 -7 4 -12 2 -12 -6 0 -8 -3 -9
-8 -3 -4 6 -18 10 -32 10 -14 0 -28 -4 -32 -10 -5 -6 -8 -5 -8 3 0 14 -21 12
-32 -3 -5 -6 -8 -5 -8 3 0 9 -5 10 -19 2 -13 -7 -22 -7 -26 0 -3 5 -11 10 -16
10 -6 0 -8 -4 -5 -8 2 -4 -4 -8 -14 -8 -10 0 -17 3 -15 6 7 11 -34 6 -50 -6z"/>
<path d="M2120 3121 c0 -7 -4 -10 -9 -7 -5 3 -11 -4 -15 -17 -3 -12 -6 -248
-6 -523 l0 -502 28 -10 c15 -5 93 -9 177 -7 178 3 165 1 165 20 0 8 5 15 11
15 5 0 7 5 4 10 -4 6 -1 18 7 27 7 9 8 14 2 10 -9 -5 -12 28 -12 122 0 99 4
131 14 135 7 3 16 1 19 -4 4 -7 13 -6 25 0 13 7 21 7 26 -1 5 -8 9 -8 14 1 9
14 40 -14 40 -36 0 -8 5 -23 10 -34 6 -11 15 -29 20 -40 6 -11 10 -27 10 -35
0 -8 5 -15 11 -15 5 0 8 -4 5 -8 -3 -5 3 -25 14 -44 10 -20 16 -39 13 -42 -4
-3 -1 -6 6 -6 7 0 10 -4 7 -9 -3 -4 3 -19 14 -31 11 -13 20 -26 20 -29 0 -4
84 -6 186 -6 184 0 187 0 197 22 7 16 6 27 -4 39 -7 9 -14 23 -15 31 -2 8 -11
24 -21 36 -10 11 -12 17 -5 13 11 -7 11 -4 0 13 -7 12 -16 21 -20 21 -5 0 -8
9 -8 19 0 11 -7 26 -15 35 -9 8 -15 17 -15 18 3 11 -24 68 -32 68 -6 0 -8 7
-4 15 3 8 2 15 -2 15 -4 0 -12 11 -19 25 -6 15 -7 25 -1 25 5 0 6 5 3 10 -3 6
-2 10 2 10 14 0 78 63 81 80 2 8 8 17 13 18 5 2 7 8 3 13 -3 5 0 9 5 9 6 0 10
3 10 8 -1 4 0 9 1 12 5 14 11 49 13 80 2 19 6 41 10 48 5 6 4 12 0 12 -5 0 -9
11 -9 25 0 14 5 25 11 25 7 0 7 3 -1 8 -5 4 -16 33 -24 64 -7 32 -17 55 -22
52 -4 -3 -8 3 -8 13 0 10 -9 25 -20 33 -11 8 -20 20 -20 27 0 7 -7 13 -16 13
-8 0 -12 5 -9 10 3 6 0 10 -8 10 -7 0 -23 9 -35 20 -12 11 -28 20 -37 20 -8 0
-15 5 -15 10 0 6 -9 10 -19 10 -11 0 -23 5 -26 10 -5 8 -11 8 -20 0 -9 -7 -14
-8 -17 0 -1 5 -26 12 -54 14 -28 2 -57 6 -63 10 -6 4 -11 1 -11 -6 0 -10 -2
-10 -9 0 -9 15 -17 15 -43 1 -10 -6 -19 -5 -23 1 -3 5 -11 10 -16 10 -6 0 -7
-5 -3 -11 4 -8 1 -8 -13 -1 -11 6 -25 7 -33 2 -8 -5 -19 -6 -25 -2 -16 11 -55
9 -55 -3 0 -5 -4 -4 -9 4 -5 8 -14 10 -22 5 -17 -10 -51 -10 -67 0 -7 4 -12 2
-12 -6 0 -10 -2 -10 -9 1 -6 9 -10 10 -16 2 -5 -9 -10 -9 -21 0 -11 9 -14 8
-14 -2 0 -12 -2 -12 -9 -1 -11 18 -12 18 -38 3 -14 -7 -23 -8 -23 -2 0 7 -9 7
-24 1 -17 -6 -26 -5 -30 3 -5 9 -7 9 -12 -1 -5 -10 -9 -10 -20 -1 -11 9 -14 9
-14 0z m445 -281 c-6 -10 67 -6 84 4 10 6 12 5 7 -2 -5 -8 0 -12 13 -12 12 0
21 -7 21 -16 0 -8 4 -13 8 -10 5 3 9 0 9 -7 0 -7 2 -16 4 -22 7 -22 -12 -85
-26 -85 -8 0 -15 -3 -15 -7 0 -13 -83 -13 -99 0 -9 7 -12 8 -8 1 4 -7 -9 -11
-41 -10 l-47 1 -1 81 -1 81 39 -3 c21 -1 36 1 34 5 -3 4 1 8 9 8 8 0 12 -4 10
-7z"/>
<path d="M918 1951 c-22 -26 -35 -106 -16 -96 10 6 11 5 1 -6 -16 -16 -17 -33
-1 -23 7 5 8 3 3 -5 -10 -18 -16 -83 -6 -77 4 3 8 -1 8 -9 0 -8 -4 -12 -7 -10
-19 11 -3 -53 17 -73 13 -13 23 -18 23 -13 0 8 21 8 40 1 3 -1 10 -1 15 0 30
8 95 5 95 -4 0 -8 3 -8 8 -1 6 10 20 11 40 5 4 -1 12 -1 17 0 27 7 62 6 77 -2
9 -4 19 -4 22 0 6 11 36 9 55 -3 10 -5 12 -4 7 3 -4 7 -2 12 3 12 6 0 11 -3
11 -6 0 -7 -233 -238 -368 -366 -33 -32 -58 -58 -55 -58 3 0 -5 -8 -17 -18
-21 -17 -23 -26 -24 -152 -1 -99 2 -137 12 -147 11 -10 107 -13 481 -13 406 0
470 2 481 15 8 10 12 48 12 113 -1 173 -1 172 -17 172 -8 0 -15 5 -15 11 0 8
-4 8 -14 0 -10 -9 -16 -9 -21 -1 -5 8 -11 8 -21 -1 -8 -6 -14 -7 -14 -2 0 13
-63 11 -72 -2 -5 -6 -8 -6 -8 2 0 12 -17 12 -37 0 -6 -4 -14 -3 -17 1 -6 10
-36 9 -54 -2 -6 -4 -12 -3 -12 1 0 5 -11 9 -25 9 -14 0 -25 -4 -25 -9 0 -6 -5
-6 -12 0 -16 11 -58 10 -77 -1 -10 -7 -12 -5 -6 4 6 9 2 10 -16 5 -22 -7 -23
-7 -9 11 8 10 108 111 221 224 128 129 210 218 217 238 8 24 8 32 -1 32 -8 0
-8 3 -2 8 12 9 14 92 2 92 -4 0 -5 5 -2 11 11 17 13 59 2 59 -6 0 -6 4 1 13
18 22 -4 57 -36 57 -15 0 -34 6 -41 13 -11 10 -13 9 -7 -1 9 -16 -52 -14 -73
2 -11 8 -13 8 -8 -1 10 -15 -52 -15 -72 1 -11 8 -13 8 -8 0 9 -16 -132 -15
-152 0 -11 8 -13 8 -8 -1 9 -14 -160 -13 -182 1 -9 6 -12 5 -8 -1 8 -13 -212
-12 -232 1 -9 6 -12 5 -8 -1 4 -6 -6 -10 -24 -11 -16 0 -27 4 -24 9 10 16 0
10 -17 -10z"/>
<path d="M2183 1963 c5 -7 -15 -10 -59 -9 -46 1 -73 -3 -91 -15 -26 -18 -28
-26 -10 -48 7 -8 7 -12 2 -9 -13 8 -13 -211 0 -231 5 -9 4 -12 -1 -8 -12 7
-11 -213 1 -233 5 -7 4 -11 -1 -7 -12 7 -11 -213 1 -232 5 -8 4 -12 -1 -8 -6
3 -9 -47 -9 -123 0 -70 3 -126 6 -124 4 2 9 -3 13 -11 4 -12 31 -15 148 -15
79 0 150 5 158 10 8 5 12 10 8 10 -4 0 -3 13 2 29 6 21 5 31 -3 35 -8 3 -8 5
1 5 9 1 10 6 3 20 -6 10 -8 21 -5 24 4 3 5 32 4 64 -1 32 -1 65 -1 73 0 8 0
61 0 118 0 56 4 102 10 102 12 0 23 -29 15 -41 -3 -5 0 -9 6 -9 6 0 8 -4 5
-10 -3 -5 -1 -10 5 -10 11 0 33 -49 28 -61 -2 -3 5 -13 15 -23 9 -10 15 -22
11 -27 -3 -5 2 -12 10 -15 9 -3 16 -12 16 -19 0 -16 29 -22 107 -20 60 2 93
18 93 44 0 6 5 11 10 11 6 0 10 11 10 25 0 14 3 25 8 25 8 0 32 49 32 67 0 7
4 13 9 13 10 0 24 38 22 60 -1 10 1 11 6 3 4 -6 8 -116 8 -245 -1 -171 2 -236
11 -245 15 -16 319 -19 309 -4 -3 5 -1 12 4 15 5 3 8 40 7 81 -1 41 2 75 7 75
4 0 5 5 1 11 -10 17 -11 469 -1 469 5 0 5 5 1 12 -4 6 -7 92 -7 190 0 130 -3
181 -13 188 -6 6 -47 11 -91 12 -43 1 -84 6 -92 12 -11 8 -13 8 -8 0 4 -7 -11
-11 -46 -10 -54 1 -111 -19 -102 -35 4 -5 2 -9 -3 -9 -6 0 -18 -20 -29 -45
-10 -25 -21 -45 -25 -45 -5 0 -8 -8 -8 -19 0 -10 -7 -24 -15 -31 -8 -7 -13
-16 -10 -20 2 -4 -3 -16 -13 -26 -9 -10 -19 -28 -20 -39 -2 -11 -7 -22 -11
-25 -7 -5 -18 -28 -19 -43 -1 -4 -8 -15 -17 -23 -8 -9 -13 -19 -10 -24 3 -4
-2 -10 -10 -14 -8 -3 -14 -2 -13 2 2 12 -22 66 -33 73 -6 3 -12 12 -14 20 -9
38 -18 59 -27 59 -5 0 -7 4 -3 9 3 6 -3 14 -12 20 -10 6 -14 11 -9 11 4 0 1
11 -8 25 -9 14 -14 25 -11 25 4 0 -3 13 -14 29 -11 15 -18 31 -14 35 3 3 2 6
-3 6 -6 0 -16 16 -23 35 -13 37 -35 46 -129 49 -26 1 -53 5 -61 10 -9 6 -12 5
-8 -1z"/>
<path d="M1830 563 c0 -12 -6 -24 -12 -27 -10 -5 -10 -7 0 -12 7 -3 12 -24 12
-49 0 -31 5 -45 16 -49 21 -8 33 2 16 13 -15 9 -24 69 -11 77 5 3 6 11 2 17
-4 7 -8 18 -9 25 -4 23 -14 26 -14 5z"/>
<path d="M1880 501 c0 -86 16 -114 19 -34 1 26 7 51 14 55 11 7 3 12 -15 9 -4
0 -5 8 -3 19 2 11 0 22 -6 25 -5 4 -9 -27 -9 -74z"/>
<path d="M2062 527 c1 -31 2 -57 0 -57 -1 0 -16 23 -33 50 -17 28 -34 50 -38
50 -4 0 -8 -34 -10 -75 -2 -53 1 -75 10 -75 8 0 10 18 7 60 l-4 61 38 -61 c21
-33 40 -60 41 -60 7 0 1 150 -6 157 -5 4 -7 -18 -5 -50z"/>
<path d="M2116 567 c-23 -17 -25 -113 -2 -135 9 -9 19 -12 23 -8 4 4 1 11 -7
16 -19 12 -20 90 -2 113 19 22 11 31 -12 14z"/>
<path d="M2213 565 c2 -5 12 -9 21 -7 14 3 17 -3 16 -25 -4 -57 0 -116 8 -109
4 4 8 31 8 59 2 78 3 80 19 73 8 -3 15 0 15 7 0 8 -16 13 -45 13 -27 0 -44 -5
-42 -11z"/>
<path d="M2324 569 c-4 -8 -7 -82 -5 -131 1 -14 10 -18 42 -18 25 0 38 4 34
10 -4 6 -9 9 -13 6 -14 -7 -45 11 -48 27 -1 11 7 19 22 23 23 6 25 17 3 20 -5
1 -13 2 -18 3 -15 2 -7 46 9 47 8 1 24 2 34 3 11 0 16 4 12 8 -11 11 -65 12
-72 2z"/>
<path d="M1601 556 c-7 -8 -8 -17 -3 -19 4 -3 13 3 20 14 14 22 0 26 -17 5z"/>
<path d="M1653 556 c24 -19 22 -27 -20 -63 -21 -17 -35 -34 -32 -38 4 -3 19 5
34 19 16 15 31 26 35 26 13 0 18 36 8 54 -5 9 -17 16 -26 16 -16 -1 -16 -2 1
-14z"/>
<path d="M1709 543 c-6 -16 -8 -43 -5 -62 5 -35 30 -70 42 -58 3 3 -1 13 -10
22 -21 21 -20 35 2 51 16 13 16 13 0 14 -23 0 -23 18 -1 42 15 17 15 18 -1 18
-9 0 -21 -12 -27 -27z"/>
<path d="M1770 555 c7 -9 15 -13 17 -11 7 7 -7 26 -19 26 -6 0 -6 -6 2 -15z"/>
<path d="M2164 554 c21 -21 22 -102 1 -110 -16 -7 -21 -24 -6 -24 21 0 39 32
39 71 1 49 -12 79 -34 79 -14 0 -14 -2 0 -16z"/>
<path d="M1930 530 c0 -5 5 -12 11 -15 6 -4 10 -21 9 -39 -3 -44 -1 -56 8 -56
14 0 1 108 -14 114 -8 3 -14 1 -14 -4z"/>
<path d="M1775 486 c14 -22 14 -25 -1 -40 -20 -20 -11 -34 11 -16 25 20 16 80
-11 80 -12 0 -12 -4 1 -24z"/>
<path d="M1595 429 c4 -5 27 -9 53 -9 31 0 42 3 33 9 -18 12 -93 12 -86 0z"/>
</g>
</svg>
